<?xml version="1.0" encoding="UTF-8" standalone="no"?>
<!DOCTYPE svg PUBLIC "-//W3C//DTD SVG 1.1//EN"
 "http://www.w3.org/Graphics/SVG/1.1/DTD/svg11.dtd">
<!-- Generated by graphviz version 13.1.2 (20250808.2320)
 -->
<!-- Pages: 1 -->
<svg width="1334pt" height="1802pt"
 viewBox="0.00 0.00 1334.00 1802.00" xmlns="http://www.w3.org/2000/svg" xmlns:xlink="http://www.w3.org/1999/xlink">
<g id="graph0" class="graph" transform="scale(1 1) rotate(0) translate(4 1798.49)">
<polygon fill="white" stroke="none" points="-4,4 -4,-1798.49 1330,-1798.49 1330,4 -4,4"/>
<text xml:space="preserve" text-anchor="middle" x="663" y="-1780.04" font-family="Times New Roman,serif" font-size="11.00">Bachwasserkreislauf: Schwallbecken → Filtration → Wasseraufbereitung → Rückführung</text>
<g id="clust1" class="cluster">
<title>cluster_info</title>
</g>
<g id="clust2" class="cluster">
<title>cluster_rohwasser</title>
<polygon fill="none" stroke="#198754" stroke-dasharray="5,2" points="214,-1224.87 214,-1764.99 717,-1764.99 717,-1224.87 214,-1224.87"/>
<text xml:space="preserve" text-anchor="middle" x="465.5" y="-1747.69" font-family="Times New Roman,serif" font-size="14.00" fill="#198754">Rohwasserversorgung</text>
</g>
<g id="clust3" class="cluster">
<title>cluster_aufbereitung</title>
<polygon fill="none" stroke="#6c757d" stroke-dasharray="5,2" points="725,-1098.17 725,-1391.75 911,-1391.75 911,-1098.17 725,-1098.17"/>
<text xml:space="preserve" text-anchor="middle" x="818" y="-1374.45" font-family="Times New Roman,serif" font-size="14.00" fill="#6c757d">Hauptaufbereitung</text>
</g>
<g id="clust4" class="cluster">
<title>cluster_mzb_kreis</title>
<polygon fill="none" stroke="#0d6efd" stroke-dasharray="5,2" points="92,-8 92,-1090.17 442,-1090.17 442,-8 92,-8"/>
<text xml:space="preserve" text-anchor="middle" x="267" y="-1072.87" font-family="Times New Roman,serif" font-size="14.00" fill="#0d6efd">MZB&#45;Kreislauf (Mehrzweckbecken)</text>
</g>
<g id="clust5" class="cluster">
<title>cluster_nsb_kreis</title>
<polygon fill="none" stroke="#2e7d32" stroke-dasharray="5,2" points="968,-8 968,-1090.17 1318,-1090.17 1318,-8 968,-8"/>
<text xml:space="preserve" text-anchor="middle" x="1143" y="-1072.87" font-family="Times New Roman,serif" font-size="14.00" fill="#2e7d32">NSB&#45;Kreislauf (Nichtschwimmerbecken)</text>
</g>
<g id="clust6" class="cluster">
<title>cluster_energie</title>
<polygon fill="none" stroke="#dc143c" stroke-dasharray="5,2" points="536,-200.72 536,-324.6 874,-324.6 874,-200.72 536,-200.72"/>
<text xml:space="preserve" text-anchor="middle" x="705" y="-307.3" font-family="Times New Roman,serif" font-size="14.00" fill="#dc143c">Wärmeversorgung (Biomasseheizwerk)</text>
</g>
<g id="clust7" class="cluster">
<title>cluster_entsorgung</title>
<polygon fill="none" stroke="#8b4513" stroke-dasharray="5,2" points="450,-517.31 450,-808.88 960,-808.88 960,-517.31 450,-517.31"/>
<text xml:space="preserve" text-anchor="middle" x="705" y="-791.58" font-family="Times New Roman,serif" font-size="14.00" fill="#8b4513">Kanalentsorgung</text>
</g>
<!-- INFO_TABLE -->
<g id="node1" class="node">
<title>INFO_TABLE</title>
<polygon fill="white" stroke="none" points="21.38,-1504.94 21.38,-1645.19 192.62,-1645.19 192.62,-1504.94 21.38,-1504.94"/>
<polygon fill="#e8f3ff" stroke="none" points="22.38,-1624.44 22.38,-1644.19 191.62,-1644.19 191.62,-1624.44 22.38,-1624.44"/>
<polygon fill="none" stroke="black" points="22.38,-1624.44 22.38,-1644.19 191.62,-1644.19 191.62,-1624.44 22.38,-1624.44"/>
<text xml:space="preserve" text-anchor="start" x="61.25" y="-1632.59" font-family="Helvetica,sans-Serif" font-weight="bold" font-size="8.00">ANLAGENKENNDATEN</text>
<polygon fill="none" stroke="black" points="22.38,-1604.69 22.38,-1624.44 84.88,-1624.44 84.88,-1604.69 22.38,-1604.69"/>
<text xml:space="preserve" text-anchor="start" x="27.38" y="-1612.84" font-family="Helvetica,sans-Serif" font-weight="bold" font-size="8.00">Projekt:</text>
<polygon fill="none" stroke="black" points="84.88,-1604.69 84.88,-1624.44 191.62,-1624.44 191.62,-1604.69 84.88,-1604.69"/>
<text xml:space="preserve" text-anchor="start" x="89.88" y="-1611.84" font-family="Helvetica,sans-Serif" font-size="8.00">SVFD Bachwasserkreislauf</text>
<polygon fill="none" stroke="black" points="22.38,-1584.94 22.38,-1604.69 84.88,-1604.69 84.88,-1584.94 22.38,-1584.94"/>
<text xml:space="preserve" text-anchor="start" x="27.38" y="-1593.09" font-family="Helvetica,sans-Serif" font-weight="bold" font-size="8.00">Geändert am:</text>
<polygon fill="none" stroke="black" points="84.88,-1584.94 84.88,-1604.69 191.62,-1604.69 191.62,-1584.94 84.88,-1584.94"/>
<text xml:space="preserve" text-anchor="start" x="89.88" y="-1592.09" font-family="Helvetica,sans-Serif" font-size="8.00">25.08.2025 15:22</text>
<polygon fill="none" stroke="black" points="22.38,-1565.19 22.38,-1584.94 84.88,-1584.94 84.88,-1565.19 22.38,-1565.19"/>
<text xml:space="preserve" text-anchor="start" x="27.38" y="-1573.34" font-family="Helvetica,sans-Serif" font-weight="bold" font-size="8.00">Gezeichnet:</text>
<polygon fill="none" stroke="black" points="84.88,-1565.19 84.88,-1584.94 191.62,-1584.94 191.62,-1565.19 84.88,-1565.19"/>
<text xml:space="preserve" text-anchor="start" x="89.88" y="-1572.34" font-family="Helvetica,sans-Serif" font-size="8.00">P&amp;ID Generator</text>
<polygon fill="none" stroke="black" points="22.38,-1545.44 22.38,-1565.19 84.88,-1565.19 84.88,-1545.44 22.38,-1545.44"/>
<text xml:space="preserve" text-anchor="start" x="27.38" y="-1553.59" font-family="Helvetica,sans-Serif" font-weight="bold" font-size="8.00">Version:</text>
<polygon fill="none" stroke="black" points="84.88,-1545.44 84.88,-1565.19 191.62,-1565.19 191.62,-1545.44 84.88,-1545.44"/>
<text xml:space="preserve" text-anchor="start" x="89.88" y="-1552.59" font-family="Helvetica,sans-Serif" font-size="8.00">1.0</text>
<polygon fill="none" stroke="black" points="22.38,-1525.69 22.38,-1545.44 84.88,-1545.44 84.88,-1525.69 22.38,-1525.69"/>
<text xml:space="preserve" text-anchor="start" x="27.38" y="-1533.84" font-family="Helvetica,sans-Serif" font-weight="bold" font-size="8.00">Maßstab:</text>
<polygon fill="none" stroke="black" points="84.88,-1525.69 84.88,-1545.44 191.62,-1545.44 191.62,-1525.69 84.88,-1525.69"/>
<text xml:space="preserve" text-anchor="start" x="89.88" y="-1532.84" font-family="Helvetica,sans-Serif" font-size="8.00">ohne Maßstab</text>
<polygon fill="none" stroke="black" points="22.38,-1505.94 22.38,-1525.69 84.88,-1525.69 84.88,-1505.94 22.38,-1505.94"/>
<text xml:space="preserve" text-anchor="start" x="27.38" y="-1514.09" font-family="Helvetica,sans-Serif" font-weight="bold" font-size="8.00">Blatt:</text>
<polygon fill="none" stroke="black" points="84.88,-1505.94 84.88,-1525.69 191.62,-1525.69 191.62,-1505.94 84.88,-1505.94"/>
<text xml:space="preserve" text-anchor="start" x="89.88" y="-1513.09" font-family="Helvetica,sans-Serif" font-size="8.00">1 von 1</text>
<polygon fill="none" stroke="black" points="21.38,-1504.94 21.38,-1645.19 192.62,-1645.19 192.62,-1504.94 21.38,-1504.94"/>
</g>
<!-- T301 -->
<g id="node6" class="node">
<title>T301</title>
<path fill="#e8f3ff" stroke="#1f4f8a" d="M529.26,-1459.38C529.26,-1462.67 499.56,-1465.34 463,-1465.34 426.44,-1465.34 396.74,-1462.67 396.74,-1459.38 396.74,-1459.38 396.74,-1405.71 396.74,-1405.71 396.74,-1402.42 426.44,-1399.75 463,-1399.75 499.56,-1399.75 529.26,-1402.42 529.26,-1405.71 529.26,-1405.71 529.26,-1459.38 529.26,-1459.38"/>
<path fill="none" stroke="#1f4f8a" d="M529.26,-1459.38C529.26,-1456.09 499.56,-1453.41 463,-1453.41 426.44,-1453.41 396.74,-1456.09 396.74,-1459.38"/>
<text xml:space="preserve" text-anchor="start" x="451" y="-1439.3" font-family="Helvetica,sans-Serif" font-weight="bold" font-size="10.00">T&#45;301</text>
<text xml:space="preserve" text-anchor="start" x="407.5" y="-1419.25" font-family="Helvetica,sans-Serif" font-size="9.00">Schwallbecken Rohwasser</text>
</g>
<!-- INFO_TABLE&#45;&gt;T301 -->
<!-- S101 -->
<g id="node2" class="node">
<title>S101</title>
<path fill="#e8f3ff" stroke="#1f4f8a" d="M498.88,-1732.49C498.88,-1732.49 427.12,-1732.49 427.12,-1732.49 421.12,-1732.49 415.12,-1726.49 415.12,-1720.49 415.12,-1720.49 415.12,-1696.79 415.12,-1696.79 415.12,-1690.79 421.12,-1684.79 427.12,-1684.79 427.12,-1684.79 498.88,-1684.79 498.88,-1684.79 504.88,-1684.79 510.88,-1690.79 510.88,-1696.79 510.88,-1696.79 510.88,-1720.49 510.88,-1720.49 510.88,-1726.49 504.88,-1732.49 498.88,-1732.49"/>
<text xml:space="preserve" text-anchor="start" x="450.25" y="-1715.39" font-family="Helvetica,sans-Serif" font-weight="bold" font-size="10.00">S&#45;101</text>
<text xml:space="preserve" text-anchor="start" x="425.88" y="-1695.34" font-family="Helvetica,sans-Serif" font-size="9.00">Trinkwasserzulauf</text>
</g>
<!-- MS101 -->
<g id="node3" class="node">
<title>MS101</title>
<polygon fill="#fff2cc" stroke="#a66d00" points="463,-1622.76 337.23,-1575.06 463,-1527.36 588.77,-1575.06 463,-1622.76"/>
<text xml:space="preserve" text-anchor="start" x="446.12" y="-1581.81" font-family="Helvetica,sans-Serif" font-weight="bold" font-size="10.00">MS&#45;101</text>
<text xml:space="preserve" text-anchor="start" x="410.88" y="-1561.76" font-family="Helvetica,sans-Serif" font-size="9.00">Magnetventil Trinkwasser</text>
</g>
<!-- S101&#45;&gt;MS101 -->
<g id="edge1" class="edge">
<title>S101&#45;&gt;MS101</title>
<path fill="none" stroke="#198754" stroke-width="2" d="M463,-1684.45C463,-1684.45 463,-1636.17 463,-1636.17"/>
<polygon fill="#198754" stroke="#198754" stroke-width="2" points="466.5,-1636.17 463,-1626.17 459.5,-1636.17 466.5,-1636.17"/>
<text xml:space="preserve" text-anchor="middle" x="419.88" y="-1662.81" font-family="Helvetica,sans-Serif" font-size="10.00">DNxxx Trinkwasser</text>
</g>
<!-- MS101&#45;&gt;T301 -->
<g id="edge2" class="edge">
<title>MS101&#45;&gt;T301</title>
<path fill="none" stroke="#198754" stroke-width="2" d="M485.09,-1535.37C485.09,-1535.37 485.09,-1478.8 485.09,-1478.8"/>
<polygon fill="#198754" stroke="#198754" stroke-width="2" points="488.59,-1478.8 485.09,-1468.8 481.59,-1478.8 488.59,-1478.8"/>
<text xml:space="preserve" text-anchor="middle" x="467.84" y="-1509.58" font-family="Helvetica,sans-Serif" font-size="10.00">geregelt</text>
</g>
<!-- S102 -->
<g id="node4" class="node">
<title>S102</title>
<path fill="#e8f3ff" stroke="#1f4f8a" d="M696.88,-1598.91C696.88,-1598.91 619.12,-1598.91 619.12,-1598.91 613.12,-1598.91 607.12,-1592.91 607.12,-1586.91 607.12,-1586.91 607.12,-1563.21 607.12,-1563.21 607.12,-1557.21 613.12,-1551.21 619.12,-1551.21 619.12,-1551.21 696.88,-1551.21 696.88,-1551.21 702.88,-1551.21 708.88,-1557.21 708.88,-1563.21 708.88,-1563.21 708.88,-1586.91 708.88,-1586.91 708.88,-1592.91 702.88,-1598.91 696.88,-1598.91"/>
<text xml:space="preserve" text-anchor="start" x="645.25" y="-1581.81" font-family="Helvetica,sans-Serif" font-weight="bold" font-size="10.00">S&#45;102</text>
<text xml:space="preserve" text-anchor="start" x="617.88" y="-1561.76" font-family="Helvetica,sans-Serif" font-size="9.00">Bachwasser Lineffe</text>
</g>
<!-- S102&#45;&gt;T301 -->
<g id="edge3" class="edge">
<title>S102&#45;&gt;T301</title>
<path fill="none" stroke="#198754" stroke-width="2" d="M658,-1550.97C658,-1510.43 658,-1433 658,-1433 658,-1433 542.59,-1433 542.59,-1433"/>
<polygon fill="#198754" stroke="#198754" stroke-width="2" points="542.59,-1429.5 532.59,-1433 542.59,-1436.5 542.59,-1429.5"/>
<text xml:space="preserve" text-anchor="middle" x="616.38" y="-1436.78" font-family="Helvetica,sans-Serif" font-size="10.00">DNxxx Rohwasser</text>
</g>
<!-- S103 -->
<g id="node5" class="node">
<title>S103</title>
<path fill="#e8f3ff" stroke="#1f4f8a" d="M307.63,-1598.91C307.63,-1598.91 234.37,-1598.91 234.37,-1598.91 228.37,-1598.91 222.37,-1592.91 222.37,-1586.91 222.37,-1586.91 222.37,-1563.21 222.37,-1563.21 222.37,-1557.21 228.37,-1551.21 234.37,-1551.21 234.37,-1551.21 307.63,-1551.21 307.63,-1551.21 313.63,-1551.21 319.63,-1557.21 319.63,-1563.21 319.63,-1563.21 319.63,-1586.91 319.63,-1586.91 319.63,-1592.91 313.63,-1598.91 307.63,-1598.91"/>
<text xml:space="preserve" text-anchor="start" x="258.25" y="-1581.81" font-family="Helvetica,sans-Serif" font-weight="bold" font-size="10.00">S&#45;103</text>
<text xml:space="preserve" text-anchor="start" x="233.12" y="-1561.76" font-family="Helvetica,sans-Serif" font-size="9.00">Quellwasserzulauf</text>
</g>
<!-- S103&#45;&gt;T301 -->
<g id="edge4" class="edge">
<title>S103&#45;&gt;T301</title>
<path fill="none" stroke="#198754" stroke-width="2" d="M315.95,-1550.97C315.95,-1510.43 315.95,-1433 315.95,-1433 315.95,-1433 383.33,-1433 383.33,-1433"/>
<polygon fill="#198754" stroke="#198754" stroke-width="2" points="383.33,-1436.5 393.33,-1433 383.33,-1429.5 383.33,-1436.5"/>
<text xml:space="preserve" text-anchor="middle" x="272.08" y="-1460.79" font-family="Helvetica,sans-Serif" font-size="10.00">DNxxx Quellwasser</text>
</g>
<!-- OVFL -->
<g id="node7" class="node">
<title>OVFL</title>
<polygon fill="#d2b48c" stroke="#8b4513" points="339.31,-1261.68 463,-1232.87 586.69,-1261.68 586.58,-1308.29 339.42,-1308.29 339.31,-1261.68"/>
<text xml:space="preserve" text-anchor="start" x="440.5" y="-1281.31" font-family="Helvetica,sans-Serif" font-weight="bold" font-size="10.00">OVFL&#45;301</text>
<text xml:space="preserve" text-anchor="start" x="403" y="-1261.26" font-family="Helvetica,sans-Serif" font-size="9.00">Überlauf → Lineffe(1m Höhe)</text>
</g>
<!-- T301&#45;&gt;OVFL -->
<g id="edge5" class="edge">
<title>T301&#45;&gt;OVFL</title>
<path fill="none" stroke="#ff6347" stroke-width="2" stroke-dasharray="5,2" d="M440.91,-1399.43C440.91,-1399.43 440.91,-1321.76 440.91,-1321.76"/>
<polygon fill="#ff6347" stroke="#ff6347" stroke-width="2" points="444.41,-1321.76 440.91,-1311.76 437.41,-1321.76 444.41,-1321.76"/>
<text xml:space="preserve" text-anchor="middle" x="398.91" y="-1363.09" font-family="Helvetica,sans-Serif" font-size="10.00">DNxxx Notüberlauf</text>
</g>
<!-- P101 -->
<g id="node8" class="node">
<title>P101</title>
<ellipse fill="#f6f7f9" stroke="#0d6efd" cx="818" cy="-1274.56" rx="84.69" ry="84.69"/>
<text xml:space="preserve" text-anchor="start" x="805.25" y="-1281.31" font-family="Helvetica,sans-Serif" font-weight="bold" font-size="10.00">P&#45;101</text>
<text xml:space="preserve" text-anchor="start" x="768.88" y="-1261.26" font-family="Helvetica,sans-Serif" font-size="9.00">Rohwasserpumpen (2x)</text>
</g>
<!-- T301&#45;&gt;P101 -->
<g id="edge6" class="edge">
<title>T301&#45;&gt;P101</title>
<path fill="none" stroke="#6c757d" stroke-width="2.5" d="M485.09,-1399.48C485.09,-1372.21 485.09,-1338 485.09,-1338 485.09,-1338 747.36,-1338 747.36,-1338"/>
<polygon fill="#6c757d" stroke="#6c757d" stroke-width="2.5" points="747.36,-1341.5 757.36,-1338 747.36,-1334.5 747.36,-1341.5"/>
<text xml:space="preserve" text-anchor="middle" x="538.24" y="-1340.5" font-family="Helvetica,sans-Serif" font-size="10.00">DNxxx Ansaugleitung</text>
</g>
<!-- F201 -->
<g id="node9" class="node">
<title>F201</title>
<path fill="#e8f3ff" stroke="#1f4f8a" d="M861.76,-1153.87C861.76,-1153.87 774.24,-1153.87 774.24,-1153.87 768.24,-1153.87 762.24,-1147.87 762.24,-1141.87 762.24,-1141.87 762.24,-1118.17 762.24,-1118.17 762.24,-1112.17 768.24,-1106.17 774.24,-1106.17 774.24,-1106.17 861.76,-1106.17 861.76,-1106.17 867.76,-1106.17 873.76,-1112.17 873.76,-1118.17 873.76,-1118.17 873.76,-1141.87 873.76,-1141.87 873.76,-1147.87 867.76,-1153.87 861.76,-1153.87"/>
<text xml:space="preserve" text-anchor="start" x="805.62" y="-1136.77" font-family="Helvetica,sans-Serif" font-weight="bold" font-size="10.00">F&#45;201</text>
<text xml:space="preserve" text-anchor="start" x="773" y="-1116.72" font-family="Helvetica,sans-Serif" font-size="9.00">Grobfilter Bachwasser</text>
</g>
<!-- P101&#45;&gt;F201 -->
<g id="edge7" class="edge">
<title>P101&#45;&gt;F201</title>
<path fill="none" stroke="#6c757d" stroke-width="2.5" d="M818,-1189.65C818,-1189.65 818,-1168.1 818,-1168.1"/>
<polygon fill="#6c757d" stroke="#6c757d" stroke-width="2.5" points="821.5,-1168.1 818,-1158.1 814.5,-1168.1 821.5,-1168.1"/>
<text xml:space="preserve" text-anchor="middle" x="776.38" y="-1181.37" font-family="Helvetica,sans-Serif" font-size="10.00">DNxxx Rohwasser</text>
</g>
<!-- MS201 -->
<g id="node10" class="node">
<title>MS201</title>
<polygon fill="#fff2cc" stroke="#a66d00" points="206,-1057.67 99.73,-1009.97 206,-962.27 312.27,-1009.97 206,-1057.67"/>
<text xml:space="preserve" text-anchor="start" x="189.12" y="-1016.72" font-family="Helvetica,sans-Serif" font-weight="bold" font-size="10.00">MS&#45;201</text>
<text xml:space="preserve" text-anchor="start" x="163.62" y="-996.67" font-family="Helvetica,sans-Serif" font-size="9.00">Magnetventil → MZB</text>
</g>
<!-- F201&#45;&gt;MS201 -->
<g id="edge8" class="edge">
<title>F201&#45;&gt;MS201</title>
<path fill="none" stroke="#6c757d" stroke-width="2.5" d="M761.91,-1130C621.74,-1130 267.32,-1130 267.32,-1130 267.32,-1130 267.32,-1044.39 267.32,-1044.39"/>
<polygon fill="#6c757d" stroke="#6c757d" stroke-width="2.5" points="270.82,-1044.39 267.32,-1034.39 263.82,-1044.39 270.82,-1044.39"/>
<text xml:space="preserve" text-anchor="middle" x="456.43" y="-1132.5" font-family="Helvetica,sans-Serif" font-size="10.00">DNxxx</text>
</g>
<!-- MS202 -->
<g id="node11" class="node">
<title>MS202</title>
<polygon fill="#fff2cc" stroke="#a66d00" points="1082,-1057.67 975.73,-1009.97 1082,-962.27 1188.27,-1009.97 1082,-1057.67"/>
<text xml:space="preserve" text-anchor="start" x="1065.12" y="-1016.72" font-family="Helvetica,sans-Serif" font-weight="bold" font-size="10.00">MS&#45;202</text>
<text xml:space="preserve" text-anchor="start" x="1039.62" y="-996.67" font-family="Helvetica,sans-Serif" font-size="9.00">Magnetventil → NSB</text>
</g>
<!-- F201&#45;&gt;MS202 -->
<g id="edge9" class="edge">
<title>F201&#45;&gt;MS202</title>
<path fill="none" stroke="#6c757d" stroke-width="2.5" d="M820.77,-1105.72C820.77,-1080.9 820.77,-1046 820.77,-1046 820.77,-1046 1041.24,-1046 1041.24,-1046"/>
<polygon fill="#6c757d" stroke="#6c757d" stroke-width="2.5" points="1041.24,-1049.5 1051.24,-1046 1041.24,-1042.5 1041.24,-1049.5"/>
<text xml:space="preserve" text-anchor="middle" x="885.77" y="-1048.5" font-family="Helvetica,sans-Serif" font-size="10.00">DNxxx</text>
</g>
<!-- T302 -->
<g id="node12" class="node">
<title>T302</title>
<path fill="#e8f3ff" stroke="#1f4f8a" d="M276.38,-920.31C276.38,-923.6 252.91,-926.27 224,-926.27 195.09,-926.27 171.62,-923.6 171.62,-920.31 171.62,-920.31 171.62,-866.65 171.62,-866.65 171.62,-863.36 195.09,-860.68 224,-860.68 252.91,-860.68 276.38,-863.36 276.38,-866.65 276.38,-866.65 276.38,-920.31 276.38,-920.31"/>
<path fill="none" stroke="#1f4f8a" d="M276.38,-920.31C276.38,-917.02 252.91,-914.35 224,-914.35 195.09,-914.35 171.62,-917.02 171.62,-920.31"/>
<text xml:space="preserve" text-anchor="start" x="212" y="-900.23" font-family="Helvetica,sans-Serif" font-weight="bold" font-size="10.00">T&#45;302</text>
<text xml:space="preserve" text-anchor="start" x="182.38" y="-880.18" font-family="Helvetica,sans-Serif" font-size="9.00">Schwallbecken MZB</text>
</g>
<!-- MS201&#45;&gt;T302 -->
<g id="edge10" class="edge">
<title>MS201&#45;&gt;T302</title>
<path fill="none" stroke="#0d6efd" stroke-width="2.5" d="M224,-969.88C224,-969.88 224,-940.47 224,-940.47"/>
<polygon fill="#0d6efd" stroke="#0d6efd" stroke-width="2.5" points="227.5,-940.47 224,-930.47 220.5,-940.47 227.5,-940.47"/>
<text xml:space="preserve" text-anchor="middle" x="190.25" y="-957.67" font-family="Helvetica,sans-Serif" font-size="10.00">DNxxx → MZB</text>
</g>
<!-- T303 -->
<g id="node13" class="node">
<title>T303</title>
<path fill="#e8f3ff" stroke="#1f4f8a" d="M1174.38,-920.31C1174.38,-923.6 1150.91,-926.27 1122,-926.27 1093.09,-926.27 1069.62,-923.6 1069.62,-920.31 1069.62,-920.31 1069.62,-866.65 1069.62,-866.65 1069.62,-863.36 1093.09,-860.68 1122,-860.68 1150.91,-860.68 1174.38,-863.36 1174.38,-866.65 1174.38,-866.65 1174.38,-920.31 1174.38,-920.31"/>
<path fill="none" stroke="#1f4f8a" d="M1174.38,-920.31C1174.38,-917.02 1150.91,-914.35 1122,-914.35 1093.09,-914.35 1069.62,-917.02 1069.62,-920.31"/>
<text xml:space="preserve" text-anchor="start" x="1110" y="-900.23" font-family="Helvetica,sans-Serif" font-weight="bold" font-size="10.00">T&#45;303</text>
<text xml:space="preserve" text-anchor="start" x="1080.38" y="-880.18" font-family="Helvetica,sans-Serif" font-size="9.00">Schwallbecken NSB</text>
</g>
<!-- MS202&#45;&gt;T303 -->
<g id="edge11" class="edge">
<title>MS202&#45;&gt;T303</title>
<path fill="none" stroke="#2e7d32" stroke-width="2.5" d="M1122,-979.97C1122,-979.97 1122,-940.44 1122,-940.44"/>
<polygon fill="#2e7d32" stroke="#2e7d32" stroke-width="2.5" points="1125.5,-940.44 1122,-930.44 1118.5,-940.44 1125.5,-940.44"/>
<text xml:space="preserve" text-anchor="middle" x="1088.25" y="-962.71" font-family="Helvetica,sans-Serif" font-size="10.00">DNxxx → NSB</text>
</g>
<!-- K101 -->
<g id="node17" class="node">
<title>K101</title>
<polygon fill="#d2b48c" stroke="#8b4513" points="458.02,-721.81 604,-693 749.98,-721.81 749.84,-768.42 458.16,-768.42 458.02,-721.81"/>
<text xml:space="preserve" text-anchor="start" x="590.88" y="-741.44" font-family="Helvetica,sans-Serif" font-weight="bold" font-size="10.00">K&#45;101</text>
<text xml:space="preserve" text-anchor="start" x="531.25" y="-721.39" font-family="Helvetica,sans-Serif" font-size="9.00">Notablauf MZB(Überfüllungsschutz)</text>
</g>
<!-- T302&#45;&gt;K101 -->
<g id="edge15" class="edge">
<title>T302&#45;&gt;K101</title>
<path fill="none" stroke="#8b4513" stroke-width="2" d="M276.65,-867C362.31,-867 522.36,-867 522.36,-867 522.36,-867 522.36,-781.79 522.36,-781.79"/>
<polygon fill="#8b4513" stroke="#8b4513" stroke-width="2" points="525.86,-781.79 522.36,-771.79 518.86,-781.79 525.86,-781.79"/>
<text xml:space="preserve" text-anchor="middle" x="404.23" y="-869.5" font-family="Helvetica,sans-Serif" font-size="10.00">DNxxx Notablauf</text>
</g>
<!-- P102 -->
<g id="node20" class="node">
<title>P102</title>
<ellipse fill="#f6f7f9" stroke="#0d6efd" cx="288" cy="-734.69" rx="89.99" ry="89.99"/>
<text xml:space="preserve" text-anchor="start" x="275.25" y="-741.44" font-family="Helvetica,sans-Serif" font-weight="bold" font-size="10.00">P&#45;102</text>
<text xml:space="preserve" text-anchor="start" x="235.12" y="-721.39" font-family="Helvetica,sans-Serif" font-size="9.00">Umwälzpumpen MZB (2x)</text>
</g>
<!-- T302&#45;&gt;P102 -->
<g id="edge19" class="edge">
<title>T302&#45;&gt;P102</title>
<path fill="none" stroke="#0d6efd" stroke-width="2.5" d="M237.2,-860.19C237.2,-860.19 237.2,-823.25 237.2,-823.25"/>
<polygon fill="#0d6efd" stroke="#0d6efd" stroke-width="2.5" points="240.7,-823.25 237.2,-813.25 233.7,-823.25 240.7,-823.25"/>
<text xml:space="preserve" text-anchor="middle" x="194.82" y="-844.22" font-family="Helvetica,sans-Serif" font-size="10.00">DNxxx Saugleitung</text>
</g>
<!-- K102 -->
<g id="node18" class="node">
<title>K102</title>
<polygon fill="#d2b48c" stroke="#8b4513" points="767.77,-721.81 860,-693 952.23,-721.81 952.14,-768.42 767.86,-768.42 767.77,-721.81"/>
<text xml:space="preserve" text-anchor="start" x="846.88" y="-741.44" font-family="Helvetica,sans-Serif" font-weight="bold" font-size="10.00">K&#45;102</text>
<text xml:space="preserve" text-anchor="start" x="818" y="-721.39" font-family="Helvetica,sans-Serif" font-size="9.00">Standardablauf NSB</text>
</g>
<!-- T303&#45;&gt;K102 -->
<g id="edge16" class="edge">
<title>T303&#45;&gt;K102</title>
<path fill="none" stroke="#8b4513" stroke-width="2" d="M1069.35,-864C1011.74,-864 927.46,-864 927.46,-864 927.46,-864 927.46,-781.69 927.46,-781.69"/>
<polygon fill="#8b4513" stroke="#8b4513" stroke-width="2" points="930.96,-781.69 927.46,-771.69 923.96,-781.69 930.96,-781.69"/>
<text xml:space="preserve" text-anchor="middle" x="911.5" y="-866.5" font-family="Helvetica,sans-Serif" font-size="10.00">DNxxx Normalablauf</text>
</g>
<!-- P103 -->
<g id="node27" class="node">
<title>P103</title>
<ellipse fill="#f6f7f9" stroke="#0d6efd" cx="1122" cy="-734.69" rx="73.55" ry="73.55"/>
<text xml:space="preserve" text-anchor="start" x="1109.25" y="-741.44" font-family="Helvetica,sans-Serif" font-weight="bold" font-size="10.00">P&#45;103</text>
<text xml:space="preserve" text-anchor="start" x="1080.75" y="-721.39" font-family="Helvetica,sans-Serif" font-size="9.00">Umwälzpumpe NSB</text>
</g>
<!-- T303&#45;&gt;P103 -->
<g id="edge27" class="edge">
<title>T303&#45;&gt;P103</title>
<path fill="none" stroke="#2e7d32" stroke-width="2.5" d="M1122,-860.19C1122,-860.19 1122,-822.27 1122,-822.27"/>
<polygon fill="#2e7d32" stroke="#2e7d32" stroke-width="2.5" points="1125.5,-822.27 1122,-812.27 1118.5,-822.27 1125.5,-822.27"/>
<text xml:space="preserve" text-anchor="middle" x="1079.62" y="-843.73" font-family="Helvetica,sans-Serif" font-size="10.00">DNxxx Saugleitung</text>
</g>
<!-- S104 -->
<g id="node14" class="node">
<title>S104</title>
<path fill="#e8f3ff" stroke="#1f4f8a" d="M1298.01,-1033.82C1298.01,-1033.82 1217.99,-1033.82 1217.99,-1033.82 1211.99,-1033.82 1205.99,-1027.82 1205.99,-1021.82 1205.99,-1021.82 1205.99,-998.12 1205.99,-998.12 1205.99,-992.12 1211.99,-986.12 1217.99,-986.12 1217.99,-986.12 1298.01,-986.12 1298.01,-986.12 1304.01,-986.12 1310.01,-992.12 1310.01,-998.12 1310.01,-998.12 1310.01,-1021.82 1310.01,-1021.82 1310.01,-1027.82 1304.01,-1033.82 1298.01,-1033.82"/>
<text xml:space="preserve" text-anchor="start" x="1245.25" y="-1016.72" font-family="Helvetica,sans-Serif" font-weight="bold" font-size="10.00">S&#45;104</text>
<text xml:space="preserve" text-anchor="start" x="1216.75" y="-996.67" font-family="Helvetica,sans-Serif" font-size="9.00">Überlaufrinnen NSB</text>
</g>
<!-- S104&#45;&gt;T303 -->
<g id="edge12" class="edge">
<title>S104&#45;&gt;T303</title>
<path fill="none" stroke="#198754" stroke-width="2" d="M1231.87,-985.66C1231.87,-954.37 1231.87,-904 1231.87,-904 1231.87,-904 1187.71,-904 1187.71,-904"/>
<polygon fill="#198754" stroke="#198754" stroke-width="2" points="1187.71,-900.5 1177.71,-904 1187.71,-907.5 1187.71,-900.5"/>
<text xml:space="preserve" text-anchor="middle" x="1171.5" y="-925.25" font-family="Helvetica,sans-Serif" font-size="10.00">DNxxx Überlaufrinnen NSB</text>
</g>
<!-- S105 -->
<g id="node15" class="node">
<title>S105</title>
<path fill="#e8f3ff" stroke="#1f4f8a" d="M403.63,-917.33C403.63,-917.33 306.37,-917.33 306.37,-917.33 300.37,-917.33 294.37,-911.33 294.37,-905.33 294.37,-905.33 294.37,-881.63 294.37,-881.63 294.37,-875.63 300.37,-869.63 306.37,-869.63 306.37,-869.63 403.63,-869.63 403.63,-869.63 409.63,-869.63 415.63,-875.63 415.63,-881.63 415.63,-881.63 415.63,-905.33 415.63,-905.33 415.63,-911.33 409.63,-917.33 403.63,-917.33"/>
<text xml:space="preserve" text-anchor="start" x="342.25" y="-900.23" font-family="Helvetica,sans-Serif" font-weight="bold" font-size="10.00">S&#45;105</text>
<text xml:space="preserve" text-anchor="start" x="305.12" y="-880.18" font-family="Helvetica,sans-Serif" font-size="9.00">Ablaufstutzen MZB (15x)</text>
</g>
<!-- S105&#45;&gt;P102 -->
<g id="edge13" class="edge">
<title>S105&#45;&gt;P102</title>
<path fill="none" stroke="#0d6efd" stroke-width="2.5" d="M336.18,-869.36C336.18,-869.36 336.18,-824.87 336.18,-824.87"/>
<polygon fill="#0d6efd" stroke="#0d6efd" stroke-width="2.5" points="339.68,-824.87 336.18,-814.87 332.68,-824.87 339.68,-824.87"/>
<text xml:space="preserve" text-anchor="middle" x="284.8" y="-849.61" font-family="Helvetica,sans-Serif" font-size="10.00">DNxxx Tiefenentnahme</text>
</g>
<!-- S106 -->
<g id="node16" class="node">
<title>S106</title>
<path fill="#e8f3ff" stroke="#1f4f8a" d="M422.01,-1033.82C422.01,-1033.82 341.99,-1033.82 341.99,-1033.82 335.99,-1033.82 329.99,-1027.82 329.99,-1021.82 329.99,-1021.82 329.99,-998.12 329.99,-998.12 329.99,-992.12 335.99,-986.12 341.99,-986.12 341.99,-986.12 422.01,-986.12 422.01,-986.12 428.01,-986.12 434.01,-992.12 434.01,-998.12 434.01,-998.12 434.01,-1021.82 434.01,-1021.82 434.01,-1027.82 428.01,-1033.82 422.01,-1033.82"/>
<text xml:space="preserve" text-anchor="start" x="369.25" y="-1016.72" font-family="Helvetica,sans-Serif" font-weight="bold" font-size="10.00">S&#45;106</text>
<text xml:space="preserve" text-anchor="start" x="340.75" y="-996.67" font-family="Helvetica,sans-Serif" font-size="9.00">Überlaufrinnen MZB</text>
</g>
<!-- S106&#45;&gt;T302 -->
<g id="edge14" class="edge">
<title>S106&#45;&gt;T302</title>
<path fill="none" stroke="#198754" stroke-width="2" d="M372.81,-985.93C372.81,-959.89 372.81,-922 372.81,-922 372.81,-922 289.91,-922 289.91,-922"/>
<polygon fill="#198754" stroke="#198754" stroke-width="2" points="289.91,-918.5 279.91,-922 289.91,-925.5 289.91,-918.5"/>
<text xml:space="preserve" text-anchor="middle" x="423.7" y="-924.5" font-family="Helvetica,sans-Serif" font-size="10.00">DNxxx Überlaufrinnen MZB</text>
</g>
<!-- KANAL -->
<g id="node19" class="node">
<title>KANAL</title>
<polygon fill="#d2b48c" stroke="#8b4513" points="669.93,-554.12 732,-525.31 794.07,-554.12 794.02,-600.73 669.98,-600.73 669.93,-554.12"/>
<text xml:space="preserve" text-anchor="start" x="707.25" y="-573.76" font-family="Helvetica,sans-Serif" font-weight="bold" font-size="10.00">KANAL&#45;01</text>
<text xml:space="preserve" text-anchor="start" x="708.38" y="-553.71" font-family="Helvetica,sans-Serif" font-size="9.00">Hauptkanal</text>
</g>
<!-- K101&#45;&gt;KANAL -->
<g id="edge17" class="edge">
<title>K101&#45;&gt;KANAL</title>
<path fill="none" stroke="#8b4513" stroke-width="2" d="M709.95,-713.45C709.95,-713.45 709.95,-614.16 709.95,-614.16"/>
<polygon fill="#8b4513" stroke="#8b4513" stroke-width="2" points="713.45,-614.16 709.95,-604.16 706.45,-614.16 713.45,-614.16"/>
<text xml:space="preserve" text-anchor="middle" x="694.58" y="-666.31" font-family="Helvetica,sans-Serif" font-size="10.00">DNxxx</text>
</g>
<!-- K102&#45;&gt;KANAL -->
<g id="edge18" class="edge">
<title>K102&#45;&gt;KANAL</title>
<path fill="none" stroke="#8b4513" stroke-width="2" d="M780.92,-717.38C780.92,-717.38 780.92,-614.02 780.92,-614.02"/>
<polygon fill="#8b4513" stroke="#8b4513" stroke-width="2" points="784.42,-614.02 780.92,-604.02 777.42,-614.03 784.42,-614.02"/>
<text xml:space="preserve" text-anchor="middle" x="765.55" y="-668.2" font-family="Helvetica,sans-Serif" font-size="10.00">DNxxx</text>
</g>
<!-- SP101 -->
<g id="node21" class="node">
<title>SP101</title>
<polygon fill="#ffe4b5" stroke="#ff8c00" points="423.76,-567.01 355.88,-606.57 220.12,-606.57 152.24,-567.01 220.12,-527.45 355.88,-527.45 423.76,-567.01"/>
<text xml:space="preserve" text-anchor="start" x="271.88" y="-574.13" font-family="Helvetica,sans-Serif" font-weight="bold" font-size="10.00">SP&#45;101</text>
<text xml:space="preserve" text-anchor="start" x="215.62" y="-554.08" font-family="Helvetica,sans-Serif" font-size="9.00">Messstelle MZB(pH/Cl₂&#45;Analytik)</text>
</g>
<!-- P102&#45;&gt;SP101 -->
<g id="edge20" class="edge">
<title>P102&#45;&gt;SP101</title>
<path fill="none" stroke="#0d6efd" stroke-width="2.5" d="M288,-644.47C288,-644.47 288,-620.66 288,-620.66"/>
<polygon fill="#0d6efd" stroke="#0d6efd" stroke-width="2.5" points="291.5,-620.66 288,-610.66 284.5,-620.66 291.5,-620.66"/>
<text xml:space="preserve" text-anchor="middle" x="243.75" y="-635.07" font-family="Helvetica,sans-Serif" font-size="10.00">DNxxx Druckleitung</text>
</g>
<!-- F202 -->
<g id="node22" class="node">
<title>F202</title>
<path fill="#e8f3ff" stroke="#1f4f8a" d="M314.88,-489.31C314.88,-489.31 261.12,-489.31 261.12,-489.31 255.12,-489.31 249.12,-483.31 249.12,-477.31 249.12,-477.31 249.12,-453.61 249.12,-453.61 249.12,-447.61 255.12,-441.61 261.12,-441.61 261.12,-441.61 314.88,-441.61 314.88,-441.61 320.88,-441.61 326.88,-447.61 326.88,-453.61 326.88,-453.61 326.88,-477.31 326.88,-477.31 326.88,-483.31 320.88,-489.31 314.88,-489.31"/>
<text xml:space="preserve" text-anchor="start" x="275.62" y="-472.21" font-family="Helvetica,sans-Serif" font-weight="bold" font-size="10.00">F&#45;202</text>
<text xml:space="preserve" text-anchor="start" x="259.88" y="-452.16" font-family="Helvetica,sans-Serif" font-size="9.00">Feinfilter MZB</text>
</g>
<!-- SP101&#45;&gt;F202 -->
<g id="edge21" class="edge">
<title>SP101&#45;&gt;F202</title>
<path fill="none" stroke="#0d6efd" stroke-width="2.5" d="M288,-527.17C288,-527.17 288,-503.45 288,-503.45"/>
<polygon fill="#0d6efd" stroke="#0d6efd" stroke-width="2.5" points="291.5,-503.45 288,-493.45 284.5,-503.45 291.5,-503.45"/>
<text xml:space="preserve" text-anchor="middle" x="244.12" y="-517.81" font-family="Helvetica,sans-Serif" font-size="10.00">DNxxx zur Filtration</text>
</g>
<!-- CL101 -->
<g id="node23" class="node">
<title>CL101</title>
<polygon fill="#f0e68c" stroke="#daa520" points="425.59,-353.98 425.59,-384.23 344.99,-405.61 231.01,-405.61 150.41,-384.23 150.41,-353.98 231.01,-332.6 344.99,-332.6 425.59,-353.98"/>
<text xml:space="preserve" text-anchor="start" x="271.88" y="-375.86" font-family="Helvetica,sans-Serif" font-weight="bold" font-size="10.00">CL&#45;101</text>
<text xml:space="preserve" text-anchor="start" x="208.88" y="-355.81" font-family="Helvetica,sans-Serif" font-size="9.00">Chlordosierung MZB(Depolox&#45;System)</text>
</g>
<!-- F202&#45;&gt;CL101 -->
<g id="edge22" class="edge">
<title>F202&#45;&gt;CL101</title>
<path fill="none" stroke="#0d6efd" stroke-width="2.5" d="M288,-441.15C288,-441.15 288,-419.59 288,-419.59"/>
<polygon fill="#0d6efd" stroke="#0d6efd" stroke-width="2.5" points="291.5,-419.59 288,-409.59 284.5,-419.59 291.5,-419.59"/>
<text xml:space="preserve" text-anchor="middle" x="258.75" y="-432.87" font-family="Helvetica,sans-Serif" font-size="10.00">DNxxx Filtrat</text>
</g>
<!-- FL101 -->
<g id="node24" class="node">
<title>FL101</title>
<polygon fill="#f0e68c" stroke="#daa520" points="400.91,-235.29 400.91,-265.53 334.77,-286.92 241.23,-286.92 175.09,-265.53 175.09,-235.29 241.23,-213.9 334.77,-213.9 400.91,-235.29"/>
<text xml:space="preserve" text-anchor="start" x="272.62" y="-257.16" font-family="Helvetica,sans-Serif" font-weight="bold" font-size="10.00">FL&#45;101</text>
<text xml:space="preserve" text-anchor="start" x="225" y="-237.11" font-family="Helvetica,sans-Serif" font-size="9.00">Flockungsmitteldosierung MZB</text>
</g>
<!-- CL101&#45;&gt;FL101 -->
<g id="edge23" class="edge">
<title>CL101&#45;&gt;FL101</title>
<path fill="none" stroke="#0d6efd" stroke-width="2.5" d="M288,-332.2C288,-332.2 288,-301.07 288,-301.07"/>
<polygon fill="#0d6efd" stroke="#0d6efd" stroke-width="2.5" points="291.5,-301.07 288,-291.07 284.5,-301.07 291.5,-301.07"/>
<text xml:space="preserve" text-anchor="middle" x="247.5" y="-319.14" font-family="Helvetica,sans-Serif" font-size="10.00">DNxxx desinfiziert</text>
</g>
<!-- HE101 -->
<g id="node25" class="node">
<title>HE101</title>
<polygon fill="#f0e68c" stroke="#daa520" points="433.63,-121.09 433.63,-151.33 348.32,-172.72 227.68,-172.72 142.37,-151.33 142.37,-121.09 227.68,-99.7 348.32,-99.7 433.63,-121.09"/>
<text xml:space="preserve" text-anchor="start" x="271.5" y="-142.96" font-family="Helvetica,sans-Serif" font-weight="bold" font-size="10.00">HE&#45;101</text>
<text xml:space="preserve" text-anchor="start" x="203.62" y="-122.91" font-family="Helvetica,sans-Serif" font-size="9.00">Wärmetauscher MZB(Biomasseheizwerk)</text>
</g>
<!-- FL101&#45;&gt;HE101 -->
<g id="edge24" class="edge">
<title>FL101&#45;&gt;HE101</title>
<path fill="none" stroke="#0d6efd" stroke-width="2.5" d="M288,-213.65C288,-213.65 288,-186.68 288,-186.68"/>
<polygon fill="#0d6efd" stroke="#0d6efd" stroke-width="2.5" points="291.5,-186.68 288,-176.68 284.5,-186.68 291.5,-186.68"/>
<text xml:space="preserve" text-anchor="middle" x="248.25" y="-202.67" font-family="Helvetica,sans-Serif" font-size="10.00">DNxxx aufbereitet</text>
</g>
<!-- IN101 -->
<g id="node26" class="node">
<title>IN101</title>
<path fill="#e8f3ff" stroke="#1f4f8a" d="M277.63,-63.7C277.63,-63.7 174.37,-63.7 174.37,-63.7 168.37,-63.7 162.37,-57.7 162.37,-51.7 162.37,-51.7 162.37,-28 162.37,-28 162.37,-22 168.37,-16 174.37,-16 174.37,-16 277.63,-16 277.63,-16 283.63,-16 289.63,-22 289.63,-28 289.63,-28 289.63,-51.7 289.63,-51.7 289.63,-57.7 283.63,-63.7 277.63,-63.7"/>
<text xml:space="preserve" text-anchor="start" x="211.38" y="-46.6" font-family="Helvetica,sans-Serif" font-weight="bold" font-size="10.00">IN&#45;101</text>
<text xml:space="preserve" text-anchor="start" x="173.12" y="-26.55" font-family="Helvetica,sans-Serif" font-size="9.00">Einlaufverteiler MZB (15x)</text>
</g>
<!-- HE101&#45;&gt;IN101 -->
<g id="edge25" class="edge">
<title>HE101&#45;&gt;IN101</title>
<path fill="none" stroke="#0d6efd" stroke-width="2.5" d="M226,-99.78C226,-99.78 226,-77.86 226,-77.86"/>
<polygon fill="#0d6efd" stroke="#0d6efd" stroke-width="2.5" points="229.5,-77.86 226,-67.86 222.5,-77.86 229.5,-77.86"/>
<text xml:space="preserve" text-anchor="middle" x="182.88" y="-79.32" font-family="Helvetica,sans-Serif" font-size="10.00">DNxxx konditioniert</text>
</g>
<!-- IN101&#45;&gt;T302 -->
<g id="edge26" class="edge">
<title>IN101&#45;&gt;T302</title>
<path fill="none" stroke="#9932cc" stroke-width="2" d="M161.93,-40C140.08,-40 121.05,-40 121.05,-40 121.05,-40 121.05,-893 121.05,-893 121.05,-893 158.29,-893 158.29,-893"/>
<polygon fill="#9932cc" stroke="#9932cc" stroke-width="2" points="158.29,-896.5 168.29,-893 158.29,-889.5 158.29,-896.5"/>
<text xml:space="preserve" text-anchor="middle" x="76.43" y="-467.18" font-family="Helvetica,sans-Serif" font-size="10.00">DNxxx Rückführung</text>
</g>
<!-- SP102 -->
<g id="node28" class="node">
<title>SP102</title>
<polygon fill="#ffe4b5" stroke="#ff8c00" points="1257.76,-567.01 1189.88,-606.57 1054.12,-606.57 986.24,-567.01 1054.12,-527.45 1189.88,-527.45 1257.76,-567.01"/>
<text xml:space="preserve" text-anchor="start" x="1105.88" y="-574.13" font-family="Helvetica,sans-Serif" font-weight="bold" font-size="10.00">SP&#45;102</text>
<text xml:space="preserve" text-anchor="start" x="1049.62" y="-554.08" font-family="Helvetica,sans-Serif" font-size="9.00">Messstelle NSB(pH/Cl₂&#45;Analytik)</text>
</g>
<!-- P103&#45;&gt;SP102 -->
<g id="edge28" class="edge">
<title>P103&#45;&gt;SP102</title>
<path fill="none" stroke="#2e7d32" stroke-width="2.5" d="M1122,-660.65C1122,-660.65 1122,-620.41 1122,-620.41"/>
<polygon fill="#2e7d32" stroke="#2e7d32" stroke-width="2.5" points="1125.5,-620.41 1122,-610.41 1118.5,-620.41 1125.5,-620.41"/>
<text xml:space="preserve" text-anchor="middle" x="1077.75" y="-643.03" font-family="Helvetica,sans-Serif" font-size="10.00">DNxxx Druckleitung</text>
</g>
<!-- F203 -->
<g id="node29" class="node">
<title>F203</title>
<path fill="#e8f3ff" stroke="#1f4f8a" d="M1148.88,-489.31C1148.88,-489.31 1095.12,-489.31 1095.12,-489.31 1089.12,-489.31 1083.12,-483.31 1083.12,-477.31 1083.12,-477.31 1083.12,-453.61 1083.12,-453.61 1083.12,-447.61 1089.12,-441.61 1095.12,-441.61 1095.12,-441.61 1148.88,-441.61 1148.88,-441.61 1154.88,-441.61 1160.88,-447.61 1160.88,-453.61 1160.88,-453.61 1160.88,-477.31 1160.88,-477.31 1160.88,-483.31 1154.88,-489.31 1148.88,-489.31"/>
<text xml:space="preserve" text-anchor="start" x="1109.62" y="-472.21" font-family="Helvetica,sans-Serif" font-weight="bold" font-size="10.00">F&#45;203</text>
<text xml:space="preserve" text-anchor="start" x="1093.88" y="-452.16" font-family="Helvetica,sans-Serif" font-size="9.00">Feinfilter NSB</text>
</g>
<!-- SP102&#45;&gt;F203 -->
<g id="edge29" class="edge">
<title>SP102&#45;&gt;F203</title>
<path fill="none" stroke="#2e7d32" stroke-width="2.5" d="M1122,-527.17C1122,-527.17 1122,-503.45 1122,-503.45"/>
<polygon fill="#2e7d32" stroke="#2e7d32" stroke-width="2.5" points="1125.5,-503.45 1122,-493.45 1118.5,-503.45 1125.5,-503.45"/>
<text xml:space="preserve" text-anchor="middle" x="1078.12" y="-517.81" font-family="Helvetica,sans-Serif" font-size="10.00">DNxxx zur Filtration</text>
</g>
<!-- CL102 -->
<g id="node30" class="node">
<title>CL102</title>
<polygon fill="#f0e68c" stroke="#daa520" points="1259.59,-353.98 1259.59,-384.23 1178.99,-405.61 1065.01,-405.61 984.41,-384.23 984.41,-353.98 1065.01,-332.6 1178.99,-332.6 1259.59,-353.98"/>
<text xml:space="preserve" text-anchor="start" x="1105.88" y="-375.86" font-family="Helvetica,sans-Serif" font-weight="bold" font-size="10.00">CL&#45;102</text>
<text xml:space="preserve" text-anchor="start" x="1042.88" y="-355.81" font-family="Helvetica,sans-Serif" font-size="9.00">Chlordosierung NSB(Depolox&#45;System)</text>
</g>
<!-- F203&#45;&gt;CL102 -->
<g id="edge30" class="edge">
<title>F203&#45;&gt;CL102</title>
<path fill="none" stroke="#2e7d32" stroke-width="2.5" d="M1122,-441.15C1122,-441.15 1122,-419.59 1122,-419.59"/>
<polygon fill="#2e7d32" stroke="#2e7d32" stroke-width="2.5" points="1125.5,-419.59 1122,-409.59 1118.5,-419.59 1125.5,-419.59"/>
<text xml:space="preserve" text-anchor="middle" x="1092.75" y="-432.87" font-family="Helvetica,sans-Serif" font-size="10.00">DNxxx Filtrat</text>
</g>
<!-- FL102 -->
<g id="node31" class="node">
<title>FL102</title>
<polygon fill="#f0e68c" stroke="#daa520" points="1234.91,-235.29 1234.91,-265.53 1168.77,-286.92 1075.23,-286.92 1009.09,-265.53 1009.09,-235.29 1075.23,-213.9 1168.77,-213.9 1234.91,-235.29"/>
<text xml:space="preserve" text-anchor="start" x="1106.62" y="-257.16" font-family="Helvetica,sans-Serif" font-weight="bold" font-size="10.00">FL&#45;102</text>
<text xml:space="preserve" text-anchor="start" x="1059" y="-237.11" font-family="Helvetica,sans-Serif" font-size="9.00">Flockungsmitteldosierung NSB</text>
</g>
<!-- CL102&#45;&gt;FL102 -->
<g id="edge31" class="edge">
<title>CL102&#45;&gt;FL102</title>
<path fill="none" stroke="#2e7d32" stroke-width="2.5" d="M1122,-332.2C1122,-332.2 1122,-301.07 1122,-301.07"/>
<polygon fill="#2e7d32" stroke="#2e7d32" stroke-width="2.5" points="1125.5,-301.07 1122,-291.07 1118.5,-301.07 1125.5,-301.07"/>
<text xml:space="preserve" text-anchor="middle" x="1081.5" y="-319.14" font-family="Helvetica,sans-Serif" font-size="10.00">DNxxx desinfiziert</text>
</g>
<!-- HE102 -->
<g id="node32" class="node">
<title>HE102</title>
<polygon fill="#f0e68c" stroke="#daa520" points="1267.63,-121.09 1267.63,-151.33 1182.32,-172.72 1061.68,-172.72 976.37,-151.33 976.37,-121.09 1061.68,-99.7 1182.32,-99.7 1267.63,-121.09"/>
<text xml:space="preserve" text-anchor="start" x="1105.5" y="-142.96" font-family="Helvetica,sans-Serif" font-weight="bold" font-size="10.00">HE&#45;102</text>
<text xml:space="preserve" text-anchor="start" x="1037.62" y="-122.91" font-family="Helvetica,sans-Serif" font-size="9.00">Wärmetauscher NSB(Biomasseheizwerk)</text>
</g>
<!-- FL102&#45;&gt;HE102 -->
<g id="edge32" class="edge">
<title>FL102&#45;&gt;HE102</title>
<path fill="none" stroke="#2e7d32" stroke-width="2.5" d="M1122,-213.65C1122,-213.65 1122,-186.68 1122,-186.68"/>
<polygon fill="#2e7d32" stroke="#2e7d32" stroke-width="2.5" points="1125.5,-186.68 1122,-176.68 1118.5,-186.68 1125.5,-186.68"/>
<text xml:space="preserve" text-anchor="middle" x="1078.5" y="-202.67" font-family="Helvetica,sans-Serif" font-size="10.00">DNxxx aufbereitung</text>
</g>
<!-- IN102 -->
<g id="node33" class="node">
<title>IN102</title>
<path fill="#e8f3ff" stroke="#1f4f8a" d="M1235.63,-63.7C1235.63,-63.7 1132.37,-63.7 1132.37,-63.7 1126.37,-63.7 1120.37,-57.7 1120.37,-51.7 1120.37,-51.7 1120.37,-28 1120.37,-28 1120.37,-22 1126.37,-16 1132.37,-16 1132.37,-16 1235.63,-16 1235.63,-16 1241.63,-16 1247.63,-22 1247.63,-28 1247.63,-28 1247.63,-51.7 1247.63,-51.7 1247.63,-57.7 1241.63,-63.7 1235.63,-63.7"/>
<text xml:space="preserve" text-anchor="start" x="1169.38" y="-46.6" font-family="Helvetica,sans-Serif" font-weight="bold" font-size="10.00">IN&#45;102</text>
<text xml:space="preserve" text-anchor="start" x="1131.12" y="-26.55" font-family="Helvetica,sans-Serif" font-size="9.00">Einlaufverteiler NSB (15x)</text>
</g>
<!-- HE102&#45;&gt;IN102 -->
<g id="edge33" class="edge">
<title>HE102&#45;&gt;IN102</title>
<path fill="none" stroke="#2e7d32" stroke-width="2.5" d="M1184,-99.78C1184,-99.78 1184,-77.86 1184,-77.86"/>
<polygon fill="#2e7d32" stroke="#2e7d32" stroke-width="2.5" points="1187.5,-77.86 1184,-67.86 1180.5,-77.86 1187.5,-77.86"/>
<text xml:space="preserve" text-anchor="middle" x="1140.88" y="-91.32" font-family="Helvetica,sans-Serif" font-size="10.00">DNxxx konditioniert</text>
</g>
<!-- IN102&#45;&gt;T303 -->
<g id="edge34" class="edge">
<title>IN102&#45;&gt;T303</title>
<path fill="none" stroke="#9932cc" stroke-width="2" d="M1247.99,-40C1269.82,-40 1288.82,-40 1288.82,-40 1288.82,-40 1288.82,-883 1288.82,-883 1288.82,-883 1187.81,-883 1187.81,-883"/>
<polygon fill="#9932cc" stroke="#9932cc" stroke-width="2" points="1187.81,-879.5 1177.81,-883 1187.81,-886.5 1187.81,-879.5"/>
<text xml:space="preserve" text-anchor="middle" x="1244.19" y="-494.09" font-family="Helvetica,sans-Serif" font-size="10.00">DNxxx Rückführung</text>
</g>
<!-- BHKW01 -->
<g id="node34" class="node">
<title>BHKW01</title>
<polygon fill="#ffe4e1" stroke="#dc143c" points="866.06,-263.29 705,-292.1 543.94,-263.29 544.09,-216.68 865.91,-216.68 866.06,-263.29"/>
<text xml:space="preserve" text-anchor="start" x="682.5" y="-257.16" font-family="Helvetica,sans-Serif" font-weight="bold" font-size="10.00">BHKW&#45;01</text>
<text xml:space="preserve" text-anchor="start" x="623.62" y="-237.11" font-family="Helvetica,sans-Serif" font-size="9.00">BiomasseheizwerkHeißwassererzeuger</text>
</g>
<!-- BHKW01&#45;&gt;HE101 -->
<g id="edge35" class="edge">
<title>BHKW01&#45;&gt;HE101</title>
<path fill="none" stroke="#dc143c" stroke-width="1.8" stroke-dasharray="5,2" d="M543.61,-250C483.5,-250 429.61,-250 429.61,-250 429.61,-250 429.61,-165.24 429.61,-165.24"/>
<polygon fill="#dc143c" stroke="#dc143c" stroke-width="1.8" points="433.11,-165.24 429.61,-155.24 426.11,-165.24 433.11,-165.24"/>
<text xml:space="preserve" text-anchor="middle" x="401.1" y="-252.5" font-family="Helvetica,sans-Serif" font-size="10.00">DNxxx Heißwasser</text>
</g>
<!-- BHKW01&#45;&gt;HE102 -->
<g id="edge36" class="edge">
<title>BHKW01&#45;&gt;HE102</title>
<path fill="none" stroke="#dc143c" stroke-width="1.8" stroke-dasharray="5,2" d="M866.39,-250C926.5,-250 980.39,-250 980.39,-250 980.39,-250 980.39,-165.24 980.39,-165.24"/>
<polygon fill="#dc143c" stroke="#dc143c" stroke-width="1.8" points="983.89,-165.24 980.39,-155.24 976.89,-165.24 983.89,-165.24"/>
<text xml:space="preserve" text-anchor="middle" x="922.65" y="-252.5" font-family="Helvetica,sans-Serif" font-size="10.00">DNxxx Heißwasser</text>
</g>
</g>
</svg>
